ffmpeg version 6.1.1-3ubuntu5 Copyright (c) 2000-2023 the FFmpeg developers
  built with gcc 13 (Ubuntu 13.2.0-23ubuntu3)
  configuration: --prefix=/usr --extra-version=3ubuntu5 --toolchain=hardened --libdir=/usr/lib/x86_64-linux-gnu --incdir=/usr/include/x86_64-linux-gnu --arch=amd64 --enable-gpl --disable-stripping --disable-omx --enable-gnutls --enable-libaom --enable-libass --enable-libbs2b --enable-libcaca --enable-libcdio --enable-libcodec2 --enable-libdav1d --enable-libflite --enable-libfontconfig --enable-libfreetype --enable-libfribidi --enable-libglslang --enable-libgme --enable-libgsm --enable-libharfbuzz --enable-libmp3lame --enable-libmysofa --enable-libopenjpeg --enable-libopenmpt --enable-libopus --enable-librubberband --enable-libshine --enable-libsnappy --enable-libsoxr --enable-libspeex --enable-libtheora --enable-libtwolame --enable-libvidstab --enable-libvorbis --enable-libvpx --enable-libwebp --enable-libx265 --enable-libxml2 --enable-libxvid --enable-libzimg --enable-openal --enable-opencl --enable-opengl --disable-sndio --enable-libvpl --disable-libmfx --enable-libdc1394 --enable-libdrm --enable-libiec61883 --enable-chromaprint --enable-frei0r --enable-ladspa --enable-libbluray --enable-libjack --enable-libpulse --enable-librabbitmq --enable-librist --enable-libsrt --enable-libssh --enable-libsvtav1 --enable-libx264 --enable-libzmq --enable-libzvbi --enable-lv2 --enable-sdl2 --enable-libplacebo --enable-librav1e --enable-pocketsphinx --enable-librsvg --enable-libjxl --enable-shared
  libavutil      58. 29.100 / 58. 29.100
  libavcodec     60. 31.102 / 60. 31.102
  libavformat    60. 16.100 / 60. 16.100
  libavdevice    60.  3.100 / 60.  3.100
  libavfilter     9. 12.100 /  9. 12.100
  libswscale      7.  5.100 /  7.  5.100
  libswresample   4. 12.100 /  4. 12.100
  libpostproc    57.  3.100 / 57.  3.100
Routing option strict to both codec and muxer layer
[Parsed_scale_0 @ 0x5d3b9aea11c0] w:1280 h:720 flags:'' interl:0
[Parsed_scale_2 @ 0x5d3b9aeae880] w:1280 h:720 flags:'' interl:0
-vsync is deprecated. Use -fps_mode
Passing a number to -vsync is deprecated, use a string argument as described in the manual.
[h264 @ 0x5d3b9aeb8900] Reinit context to 496x368, pix_fmt: yuv420p
Input #0, mov,mp4,m4a,3gp,3g2,mj2, from '/var/www/html/project/media/video/original/a6cf29d5-44a1-461c-ab19-e62290f31785_o2WEzHX.mov':
  Metadata:
    major_brand     : qt  
    minor_version   : 0
    compatible_brands: qt  
    creation_time   : 2026-03-25T21:33:45.000000Z
    com.apple.quicktime.creationdate: 2026-03-25T22:10:37+01:00
  Duration: 00:00:20.96, start: 0.000000, bitrate: 2375 kb/s
  Stream #0:0[0x1](und): Audio: aac (LC) (mp4a / 0x6134706D), 48000 Hz, stereo, fltp, 128 kb/s (default)
    Metadata:
      creation_time   : 2026-03-25T21:33:45.000000Z
      handler_name    : Core Media Audio
      vendor_id       : [0][0][0][0]
  Stream #0:1[0x2](und): Video: h264 (High), 1 reference frame (avc1 / 0x31637661), yuv420p(tv, bt709, progressive, left), 496x368, 2243 kb/s, 50 fps, 50 tbr, 90k tbn (default)
    Metadata:
      creation_time   : 2026-03-25T21:33:45.000000Z
      handler_name    : Core Media Video
      vendor_id       : [0][0][0][0]
      encoder         : 'avc1'
Input #1, png_pipe, from '/var/www/html/project/static/images/templates/logo.png':
  Duration: N/A, bitrate: N/A
  Stream #1:0: Video: png, 1 reference frame, rgba(pc, gbr/unknown/unknown), 1920x1080 [SAR 2835:2835 DAR 16:9], 25 fps, 25 tbr, 25 tbn
[out#0/mp4 @ 0x5d3b9bd3b6c0] Creating output stream from unlabeled output of complex filtergraph 0. This overrides automatic video mapping.
[vost#0:0/libx264 @ 0x5d3b9bd3c440] Created video stream from complex filtergraph 0:[overlay:default]
[vost#0:0/libx264 @ 0x5d3b9bd3c440] 
[out#0/mp4 @ 0x5d3b9bd3b6c0] No explicit maps, mapping streams automatically...
[aost#0:1/aac @ 0x5d3b9bd3de40] Created audio stream from input stream 0:0
Stream mapping:
  Stream #0:1 (h264) -> scale:default (graph 0)
  Stream #1:0 (png) -> scale:default (graph 0)
  overlay:default (graph 0) -> Stream #0:0 (libx264)
  Stream #0:0 -> #0:1 (aac (native) -> aac (native))
Press [q] to stop, [?] for help
[graph_1_in_0_0 @ 0x5d3b9aebbc80] tb:1/48000 samplefmt:fltp samplerate:48000 chlayout:stereo
[h264 @ 0x5d3b9af5d0c0] Reinit context to 496x368, pix_fmt: yuv420p
[in#1/png_pipe @ 0x5d3b9aee20c0] EOF while reading input
[in#1/png_pipe @ 0x5d3b9aee20c0] Terminating demuxer thread
[vist#1:0/png @ 0x5d3b9afbaac0] Decoder thread received EOF packet
[vist#1:0/png @ 0x5d3b9afbaac0] Decoder returned EOF, finishing
[vist#1:0/png @ 0x5d3b9afbaac0] Terminating decoder thread
[Parsed_scale_0 @ 0x5d3b9af2c600] w:1280 h:720 flags:'' interl:0
[Parsed_scale_2 @ 0x5d3b9af29180] w:1280 h:720 flags:'' interl:0
[graph 0 input from stream 0:1 @ 0x5d3b9af283c0] w:496 h:368 pixfmt:yuv420p tb:1/90000 fr:50/1 sar:0/1
[graph 0 input from stream 1:0 @ 0x5d3b9af28100] w:1920 h:1080 pixfmt:rgba tb:1/25 fr:25/1 sar:2835/2835
[Parsed_scale_0 @ 0x5d3b9af2c600] w:496 h:368 fmt:yuv420p sar:0/1 -> w:1280 h:720 fmt:yuv420p sar:0/1 flags:0x00000004
[Parsed_setsar_1 @ 0x5d3b9af29440] w:1280 h:720 sar:0/1 dar:16/9 -> sar:1/1 dar:16/9
[Parsed_scale_2 @ 0x5d3b9af29180] w:1920 h:1080 fmt:rgba sar:2835/2835 -> w:1280 h:720 fmt:yuva420p sar:1/1 flags:0x00000004
[Parsed_setsar_3 @ 0x5d3b9af28ec0] w:1280 h:720 sar:1/1 dar:16/9 -> sar:1/1 dar:16/9
[Parsed_overlay_4 @ 0x5d3b9af28c00] main w:1280 h:720 fmt:yuv420p overlay w:1280 h:720 fmt:yuva420p
[Parsed_overlay_4 @ 0x5d3b9af28c00] [framesync @ 0x7d765000f1e8] Selected 1/90000 time base
[Parsed_overlay_4 @ 0x5d3b9af28c00] [framesync @ 0x7d765000f1e8] Sync level 2
[Parsed_scale_0 @ 0x5d3b9af2c600] w:496 h:368 fmt:yuv420p sar:0/1 -> w:1280 h:720 fmt:yuv420p sar:0/1 flags:0x00000004
    Last message repeated 2 times
[Parsed_scale_2 @ 0x5d3b9af29180] w:1920 h:1080 fmt:rgba sar:2835/2835 -> w:1280 h:720 fmt:yuva420p sar:1/1 flags:0x00000004
    Last message repeated 2 times
[libx264 @ 0x5d3b9bd3c800] using SAR=1/1
[libx264 @ 0x5d3b9bd3c800] using cpu capabilities: MMX2 SSE2Fast SSSE3 SSE4.2 AVX FMA3 BMI2 AVX2
[libx264 @ 0x5d3b9bd3c800] profile High, level 3.2, 4:2:0, 8-bit
[libx264 @ 0x5d3b9bd3c800] 264 - core 164 r3108 31e19f9 - H.264/MPEG-4 AVC codec - Copyleft 2003-2023 - http://www.videolan.org/x264.html - options: cabac=1 ref=1 deblock=1:0:0 analyse=0x3:0x113 me=hex subme=2 psy=1 psy_rd=1.00:0.00 mixed_ref=0 me_range=16 chroma_me=1 trellis=0 8x8dct=1 cqm=0 deadzone=21,11 fast_pskip=1 chroma_qp_offset=0 threads=22 lookahead_threads=5 sliced_threads=0 nr=0 decimate=1 interlaced=0 bluray_compat=0 constrained_intra=0 bframes=3 b_pyramid=2 b_adapt=1 b_bias=0 direct=1 weightb=1 open_gop=0 weightp=1 keyint=250 keyint_min=25 scenecut=40 intra_refresh=0 rc_lookahead=10 rc=crf mbtree=1 crf=18.0 qcomp=0.60 qpmin=0 qpmax=69 qpstep=4 ip_ratio=1.40 aq=1:1.00
Output #0, mp4, to '/var/www/html/project/media/video/watermarks/a6cf29d5-44a1-461c-ab19-e62290f31785_o2WEzHX.mp4':
  Metadata:
    major_brand     : qt  
    minor_version   : 0
    compatible_brands: qt  
    com.apple.quicktime.creationdate: 2026-03-25T22:10:37+01:00
    encoder         : Lavf60.16.100
  Stream #0:0: Video: h264, 1 reference frame (avc1 / 0x31637661), yuv420p(tv, bt709, progressive, left), 1280x720 (0x0) [SAR 1:1 DAR 16:9], q=2-31, 50 fps, 12800 tbn
    Metadata:
      encoder         : Lavc60.31.102 libx264
    Side data:
      cpb: bitrate max/min/avg: 0/0/0 buffer size: 0 vbv_delay: N/A
  Stream #0:1(und): Audio: aac (LC) (mp4a / 0x6134706D), 48000 Hz, stereo, fltp, delay 1024, 128 kb/s (default)
    Metadata:
      creation_time   : 2026-03-25T21:33:45.000000Z
      handler_name    : Core Media Audio
      vendor_id       : [0][0][0][0]
      encoder         : Lavc60.31.102 aac
[in#0/mov,mp4,m4a,3gp,3g2,mj2 @ 0x5d3b9aeb6d80] EOF while reading input
[in#0/mov,mp4,m4a,3gp,3g2,mj2 @ 0x5d3b9aeb6d80] Terminating demuxer thread
[aist#0:0/aac @ 0x5d3b9aeb9440] Decoder thread received EOF packet
[aist#0:0/aac @ 0x5d3b9aeb9440] Decoder returned EOF, finishing
[aist#0:0/aac @ 0x5d3b9aeb9440] Terminating decoder thread
[vist#0:1/h264 @ 0x5d3b9aea4b40] Decoder thread received EOF packet
[vist#0:1/h264 @ 0x5d3b9aea4b40] Decoder returned EOF, finishing
[vist#0:1/h264 @ 0x5d3b9aea4b40] Terminating decoder thread
[Parsed_overlay_4 @ 0x5d3b9af28c00] [framesync @ 0x7d765000f1e8] Sync level 0
No more output streams to write to, finishing.
[out#0/mp4 @ 0x5d3b9bd3b6c0] All streams finished
[out#0/mp4 @ 0x5d3b9bd3b6c0] Terminating muxer thread
[AVIOContext @ 0x5d3b9bea1f40] Statistics: 9801134 bytes written, 2 seeks, 41 writeouts
[out#0/mp4 @ 0x5d3b9bd3b6c0] Output file #0 (/var/www/html/project/media/video/watermarks/a6cf29d5-44a1-461c-ab19-e62290f31785_o2WEzHX.mp4):
[out#0/mp4 @ 0x5d3b9bd3b6c0]   Output stream #0:0 (video): 1048 frames encoded; 1048 packets muxed (9434575 bytes); 
[out#0/mp4 @ 0x5d3b9bd3b6c0]   Output stream #0:1 (audio): 981 frames encoded (1004544 samples); 982 packets muxed (339181 bytes); 
[out#0/mp4 @ 0x5d3b9bd3b6c0]   Total: 2030 packets (9773756 bytes) muxed
[out#0/mp4 @ 0x5d3b9bd3b6c0] video:9213kB audio:331kB subtitle:0kB other streams:0kB global headers:0kB muxing overhead: 0.280077%
frame= 1048 fps=225 q=-1.0 Lsize=    9571kB time=00:00:20.90 bitrate=3750.4kbits/s speed=4.48x    
[AVIOContext @ 0x5d3b9aeae6c0] Statistics: 2014 bytes written, 0 seeks, 10 writeouts
[libx264 @ 0x5d3b9bd3c800] frame I:5     Avg QP:16.38  size: 48144
[libx264 @ 0x5d3b9bd3c800] frame P:265   Avg QP:19.00  size: 18464
[libx264 @ 0x5d3b9bd3c800] frame B:778   Avg QP:20.18  size:  5527
[libx264 @ 0x5d3b9bd3c800] consecutive B-frames:  0.9%  0.2%  0.9% 98.1%
[libx264 @ 0x5d3b9bd3c800] mb I  I16..4: 33.3% 39.8% 26.9%
[libx264 @ 0x5d3b9bd3c800] mb P  I16..4: 21.4% 19.4%  1.1%  P16..4: 29.4% 12.5%  5.3%  0.0%  0.0%    skip:10.9%
[libx264 @ 0x5d3b9bd3c800] mb B  I16..4:  2.6%  0.6%  0.0%  B16..8: 24.7%  6.6%  0.3%  direct:14.9%  skip:50.2%  L0:41.4% L1:48.9% BI: 9.7%
[libx264 @ 0x5d3b9bd3c800] 8x8 transform intra:41.3% inter:36.1%
[libx264 @ 0x5d3b9bd3c800] coded y,uvDC,uvAC intra: 32.5% 58.4% 8.7% inter: 9.0% 23.5% 0.2%
[libx264 @ 0x5d3b9bd3c800] i16 v,h,dc,p: 24% 44% 16% 16%
[libx264 @ 0x5d3b9bd3c800] i8 v,h,dc,ddl,ddr,vr,hd,vl,hu: 13% 28% 31%  5%  5%  3%  6%  3%  7%
[libx264 @ 0x5d3b9bd3c800] i4 v,h,dc,ddl,ddr,vr,hd,vl,hu: 16% 24% 16%  7%  9%  6% 10%  5%  8%
[libx264 @ 0x5d3b9bd3c800] i8c dc,h,v,p: 52% 30% 11%  7%
[libx264 @ 0x5d3b9bd3c800] Weighted P-Frames: Y:0.4% UV:0.4%
[libx264 @ 0x5d3b9bd3c800] kb/s:3600.72
[aac @ 0x5d3b9bd3e200] Qavg: 2027.598
[in#0/mov,mp4,m4a,3gp,3g2,mj2 @ 0x5d3b9aeb6d80] Input file #0 (/var/www/html/project/media/video/original/a6cf29d5-44a1-461c-ab19-e62290f31785_o2WEzHX.mov):
[in#0/mov,mp4,m4a,3gp,3g2,mj2 @ 0x5d3b9aeb6d80]   Input stream #0:0 (audio): 981 packets read (334848 bytes); 981 frames decoded; 0 decode errors (1004544 samples); 
[in#0/mov,mp4,m4a,3gp,3g2,mj2 @ 0x5d3b9aeb6d80]   Input stream #0:1 (video): 1048 packets read (5878474 bytes); 1048 frames decoded; 0 decode errors; 
[in#0/mov,mp4,m4a,3gp,3g2,mj2 @ 0x5d3b9aeb6d80]   Total: 2029 packets (6213322 bytes) demuxed
[AVIOContext @ 0x5d3b9aeb7240] Statistics: 61567676 bytes read, 1859 seeks
[in#1/png_pipe @ 0x5d3b9aee20c0] Input file #1 (/var/www/html/project/static/images/templates/logo.png):
[in#1/png_pipe @ 0x5d3b9aee20c0]   Input stream #1:0 (video): 1 packets read (111578 bytes); 1 frames decoded; 0 decode errors; 
[in#1/png_pipe @ 0x5d3b9aee20c0]   Total: 1 packets (111578 bytes) demuxed
[AVIOContext @ 0x5d3b9afb9e40] Statistics: 111578 bytes read, 0 seeks
